<?xml version="1.0" encoding="UTF-8" standalone="no"?>
<svg width="71px" height="19px" viewBox="0 0 71 19" version="1.1" xmlns="http://www.w3.org/2000/svg" xmlns:xlink="http://www.w3.org/1999/xlink">
    <!-- Generator: Sketch 3.6.1 (26313) - http://www.bohemiancoding.com/sketch -->
    <title>Shoesblack</title>
    <desc>Created with Sketch.</desc>
    <defs></defs>
    <g id="Page-1" stroke="none" stroke-width="1" fill="none" fill-rule="evenodd">
        <g id="Shoesblack">
            <g id="Shoe" transform="translate(0.000000, 1.086495)">
                <path d="M1.64690718,9.95155263 C2.53877984,9.1950578 9.05895452,5.05124182 12.2128999,2.35407286 C13.5887231,1.17750598 12.9922675,0.905412664 13.3582468,0.543247595 C13.7242262,0.181082527 14.7150669,0.0410139002 15.7371128,0.181082516 C16.7302754,0.317192748 17.7210461,0.695678594 17.9329891,0.905412662 C18.8479376,1.81082526 17.7499994,2.53515546 18.8479376,2.89732052 C19.3136832,3.05095103 20.1288654,3.41055188 21.4097932,3.25948559 C22.6907211,3.10841931 23.780279,2.06171677 23.6056695,1.62974277 C23.23969,0.724330108 24.277946,2.36515053 24.1546392,5.42448955 C24.0543868,7.91183165 23.9747043,10.5360354 23.0567004,11.0460347 C21.0782036,12.1451934 20.6778345,12.4946949 19.3969066,12.4946949 C19.0363523,12.4946949 16.0293982,14.2131659 15.0051541,14.6676853 C12.3906046,15.82792 10.0156518,16.8865468 8.41752589,17.2028408 C7.03724814,17.4760193 4.55771246,17.3440656 2.92783499,16.8406758 C1.31650856,16.3430154 0.54792173,15.4769858 0.365979381,15.2029461 C-2.37587727e-14,14.6517118 0.365979242,11.0380478 1.64690718,9.95155263 Z" id="Rectangle-128" stroke="#979797" stroke-width="0.5" fill="#242323"></path>
                <path d="M0.548969072,13.9433551 C0.548969072,13.9433551 4.45746395,16.4529684 7.68556709,15.7541805 C12.2650241,14.7628648 23.7886598,7.9676315 23.7886598,7.9676315 L23.2396901,10.502787 C23.2396901,10.502787 22.6440739,10.9998878 20.6778344,11.9514472 C20.2919012,12.1382192 19.2914939,12.087557 18.8479381,12.3136123 C16.8705599,13.3213703 14.3328701,14.5978092 13.7242262,14.8487678 C11.5283506,15.7541805 9.17507404,16.8743599 7.68556709,17.0217582 C4.02577328,17.3839233 1.09793814,15.7541805 0.731958764,15.2109329 C0.365979393,14.6676853 0.548969072,13.9433551 0.548969072,13.9433551 Z" id="Rectangle-129" fill="#FFFEFE"></path>
                <path d="M8.7309137,6.42263882 C8.7309137,5.43066167 8.81498959,2.05220653 9.07021134,2.26734939 C9.68679792,2.78710996 11.1013342,1.26237226 11.7922892,0.418006879 C12.1603857,-0.0318168912 12.1075672,3.05289 11.7922892,5.8467293 C11.515758,8.29721309 11.7966276,9.51941478 11.1415218,9.51941478 C9.73951832,9.51941478 8.33055805,11.2280299 8.33055805,11.2280299 C8.33055805,11.2280299 8.7309137,6.9320115 8.7309137,6.42263882 Z" id="Rectangle-130" stroke="#979797" stroke-width="0.25" fill="#ECEBEB" transform="translate(10.189747, 5.801031) rotate(51.000000) translate(-10.189747, -5.801031) "></path>
                <path d="M6.22164948,7.06221883 L9.33247423,7.60546643 L8.05154639,6.33788869 L11.1623711,6.51897122 L9.8814433,5.07031095 L12.2603093,5.61355855 L11.1623711,3.98381575 L13.3582474,4.52706335 L11.7113402,3.25948561" id="Line" stroke="#979797" stroke-width="0.5" stroke-linecap="square"></path>
            </g>
            <g id="Shoe-Copy" transform="translate(58.500000, 9.000000) scale(-1, 1) translate(-58.500000, -9.000000) translate(46.000000, 0.000000)">
                <path d="M1.64690718,9.95155263 C2.53877984,9.1950578 9.05895452,5.05124182 12.2128999,2.35407286 C13.5887231,1.17750598 12.9922675,0.905412664 13.3582468,0.543247595 C13.7242262,0.181082527 14.7150669,0.0410139002 15.7371128,0.181082516 C16.7302754,0.317192748 17.7210461,0.695678594 17.9329891,0.905412662 C18.8479376,1.81082526 17.7499994,2.53515546 18.8479376,2.89732052 C19.3136832,3.05095103 20.1288654,3.41055188 21.4097932,3.25948559 C22.6907211,3.10841931 23.780279,2.06171677 23.6056695,1.62974277 C23.23969,0.724330108 24.277946,2.36515053 24.1546392,5.42448955 C24.0543868,7.91183165 23.9747043,10.5360354 23.0567004,11.0460347 C21.0782036,12.1451934 20.6778345,12.4946949 19.3969066,12.4946949 C19.0363523,12.4946949 16.0293982,14.2131659 15.0051541,14.6676853 C12.3906046,15.82792 10.0156518,16.8865468 8.41752589,17.2028408 C7.03724814,17.4760193 4.55771246,17.3440656 2.92783499,16.8406758 C1.31650856,16.3430154 0.54792173,15.4769858 0.365979381,15.2029461 C3.66651154e-14,14.6517118 0.365979242,11.0380478 1.64690718,9.95155263 Z" id="Rectangle-128" stroke="#979797" stroke-width="0.5" fill="#242323"></path>
                <path d="M0.548969072,13.9433551 C0.548969072,13.9433551 4.45746395,16.4529684 7.68556709,15.7541805 C12.2650241,14.7628648 23.7886598,7.9676315 23.7886598,7.9676315 L23.2396901,10.502787 C23.2396901,10.502787 22.6440739,10.9998878 20.6778344,11.9514472 C20.2919012,12.1382192 19.2914939,12.087557 18.8479381,12.3136123 C16.8705599,13.3213703 14.3328701,14.5978092 13.7242262,14.8487678 C11.5283506,15.7541805 9.17507404,16.8743599 7.68556709,17.0217582 C4.02577328,17.3839233 1.09793814,15.7541805 0.731958764,15.2109329 C0.365979393,14.6676853 0.548969072,13.9433551 0.548969072,13.9433551 Z" id="Rectangle-129" fill="#FFFEFE"></path>
                <path d="M8.7309137,6.42263882 C8.7309137,5.43066167 8.81498959,2.05220653 9.07021134,2.26734939 C9.68679792,2.78710996 11.1013342,1.26237226 11.7922892,0.418006879 C12.1603857,-0.0318168912 12.1075672,3.05289 11.7922892,5.8467293 C11.515758,8.29721309 11.7966276,9.51941478 11.1415218,9.51941478 C9.73951832,9.51941478 8.33055805,11.2280299 8.33055805,11.2280299 C8.33055805,11.2280299 8.7309137,6.9320115 8.7309137,6.42263882 Z" id="Rectangle-130" stroke="#979797" stroke-width="0.25" fill="#ECEBEB" transform="translate(10.189747, 5.801031) rotate(51.000000) translate(-10.189747, -5.801031) "></path>
                <path d="M6.22164948,7.06221883 L9.33247423,7.60546643 L8.05154639,6.33788869 L11.1623711,6.51897122 L9.8814433,5.07031095 L12.2603093,5.61355855 L11.1623711,3.98381575 L13.3582474,4.52706335 L11.7113402,3.25948561" id="Line" stroke="#979797" stroke-width="0.5" stroke-linecap="square"></path>
            </g>
        </g>
    </g>
</svg>