<?xml version="1.0" encoding="UTF-8" standalone="no"?>
<svg width="68px" height="52px" viewBox="0 0 68 52" version="1.1" xmlns="http://www.w3.org/2000/svg" xmlns:xlink="http://www.w3.org/1999/xlink">
    <!-- Generator: Sketch 3.6 (26304) - http://www.bohemiancoding.com/sketch -->
    <title>BlondHair</title>
    <desc>Created with Sketch.</desc>
    <defs></defs>
    <g id="Page-1" stroke="none" stroke-width="1" fill="none" fill-rule="evenodd">
        <g id="Build-a-Character---Body" transform="translate(-158.000000, -829.000000)" fill="#E0D35E">
            <g id="Hair-Options" transform="translate(21.000000, 773.000000)">
                <path d="M152.524392,69.5435512 C144.06921,74.7696986 138.531957,83.7391045 138.531957,94.9372704 C138.531957,98.7303767 139.650309,103.330801 142.011512,107.77624 C138.833006,102.603951 137,96.516036 137,90 C137,71.2223185 152.222319,56 171,56 C189.777681,56 205,71.2223185 205,90 C205,94.172026 204.248566,98.1685451 202.873657,101.861598 C203.268313,99.6754241 203.468043,97.3629534 203.468043,94.9372704 C203.468043,84.6368298 198.783015,76.2221261 191.451484,70.8718385 C189.054015,73.940215 181.403485,76.7860262 172.336245,76.7860262 C161.966527,76.7860262 153.449762,73.0639115 152.524392,69.5435512 Z" id="BlondHair"></path>
            </g>
        </g>
    </g>
</svg>