<?xml version="1.0" encoding="UTF-8" standalone="no"?>
<svg width="40px" height="12px" viewBox="0 0 40 12" version="1.1" xmlns="http://www.w3.org/2000/svg" xmlns:xlink="http://www.w3.org/1999/xlink">
    <!-- Generator: Sketch 3.6 (26304) - http://www.bohemiancoding.com/sketch -->
    <title>Blue Eyes</title>
    <desc>Created with Sketch.</desc>
    <defs></defs>
    <g id="Page-1" stroke="none" stroke-width="1" fill="none" fill-rule="evenodd">
        <g id="Build-a-Character---Body" transform="translate(-172.000000, -495.000000)">
            <g id="Eyes-Option" transform="translate(21.000000, 417.000000)">
                <g id="Blue-Eyes" transform="translate(151.000000, 78.000000)">
                    <g id="Left-Eye-Copy" transform="translate(0.746830, 3.974235)">
                        <g id="Left-Eye">
                            <ellipse id="Oval-10" fill="#84A4DB" cx="3.72672138" cy="3.94039312" rx="3.72672138" ry="3.94039312"></ellipse>
                            <ellipse id="Oval-11" fill="#000000" cx="3.72672138" cy="3.94039312" rx="2.07040076" ry="2.18910729"></ellipse>
                            <ellipse id="Oval-12" fill="#FFFFFF" cx="3.10560115" cy="2.40801802" rx="0.621120229" ry="0.656732187"></ellipse>
                            <ellipse id="Oval-13" fill="#FFFFFF" cx="5.17600191" cy="5.47276822" rx="0.207040076" ry="0.218910729"></ellipse>
                        </g>
                    </g>
                    <g id="Right-Eye-Copy" transform="translate(32.325197, 3.974235)">
                        <g id="Right-Eye">
                            <ellipse id="Oval-10" fill="#84A4DB" cx="3.72672138" cy="3.94039312" rx="3.72672138" ry="3.94039312"></ellipse>
                            <ellipse id="Oval-11" fill="#000000" cx="3.72672138" cy="3.94039312" rx="2.07040076" ry="2.18910729"></ellipse>
                            <ellipse id="Oval-12" fill="#FFFFFF" cx="3.10560115" cy="2.40801802" rx="0.621120229" ry="0.656732187"></ellipse>
                            <ellipse id="Oval-13" fill="#FFFFFF" cx="5.17600191" cy="5.47276822" rx="0.207040076" ry="0.218910729"></ellipse>
                        </g>
                    </g>
                    <g id="Eyebrows-Copy" fill="#6C3D18">
                        <path d="M0.107194206,3.07772615 C0.107194206,3.07772615 1.03348244,1.76056232 2.68564178,1.15906124 C4.22765716,0.59766024 6.05496783,0.912322328 6.05496783,0.912322328 C6.05496783,0.912322328 4.23657462,-0.509921956 2.29190902,0.328338399 C0.347243425,1.16659875 0.107194206,3.07772615 0.107194206,3.07772615 L0.107194206,3.07772615 Z" id="Path-1"></path>
                        <path d="M33.107684,1.63331138 C33.107684,1.63331138 34.4863226,0.878791764 36.2206559,1.10395058 C37.839367,1.31409881 39.3512841,2.44388318 39.3512841,2.44388318 C39.3512841,2.44388318 38.3065856,0.322743821 36.211189,0.174804665 C34.1157923,0.0268655102 33.107684,1.63331138 33.107684,1.63331138 L33.107684,1.63331138 Z" id="Path-1-Copy"></path>
                    </g>
                </g>
            </g>
        </g>
    </g>
</svg>