<?xml version="1.0" encoding="UTF-8" standalone="no"?>
<svg width="71px" height="20px" viewBox="0 0 71 20" version="1.1" xmlns="http://www.w3.org/2000/svg" xmlns:xlink="http://www.w3.org/1999/xlink">
    <!-- Generator: Sketch 3.6.1 (26313) - http://www.bohemiancoding.com/sketch -->
    <title>Shoesblue</title>
    <desc>Created with Sketch.</desc>
    <defs></defs>
    <g id="Page-1" stroke="none" stroke-width="1" fill="none" fill-rule="evenodd">
        <g id="Shoesblue">
            <g id="Shoe-Copy-2" transform="translate(0.000000, 1.176471)">
                <path d="M1.64690718,10.7756656 C2.53877984,9.95652352 9.05895452,5.46954778 12.2128999,2.54901952 C13.5887231,1.27501819 12.9922675,0.98039215 13.3582468,0.588235287 C13.7242262,0.196078424 14.7150669,0.0444103639 15.7371128,0.196078411 C16.7302754,0.343460272 17.7210461,0.753289477 17.9329891,0.980392148 C18.8479376,1.96078423 17.7499994,2.74509803 18.8479376,3.13725488 C19.3136832,3.30360791 20.1288654,3.69298821 21.4097932,3.52941174 C22.6907211,3.36583528 23.780279,2.23245269 23.6056695,1.76470584 C23.23969,0.784313695 24.277946,2.56101455 24.1546392,5.87370509 C24.0543868,8.56703021 23.9747043,11.4085508 23.0567004,11.9607844 C21.0782036,13.1509673 20.6778345,13.5294119 19.3969066,13.5294119 C19.0363523,13.5294119 16.0293982,15.3901937 15.0051541,15.882353 C12.3906046,17.1386696 10.0156518,18.284964 8.41752589,18.6274511 C7.03724814,18.9232521 4.55771246,18.7803711 2.92783499,18.2352942 C1.31650856,17.6964214 0.54792173,16.7586737 0.365979381,16.4619401 C-2.20101715e-14,15.8650567 0.365979242,11.9521362 1.64690718,10.7756656 Z" id="Rectangle-128" stroke="#979797" stroke-width="0.5" fill="#212360"></path>
                <path d="M0.548969072,15.0980392 C0.548969072,15.0980392 4.45746395,17.8154799 7.68556709,17.0588235 C12.2650241,15.9854145 23.7886598,8.62745098 23.7886598,8.62745098 L23.2396901,11.372549 C23.2396901,11.372549 22.6440739,11.910816 20.6778344,12.9411765 C20.2919012,13.1434155 19.2914939,13.0885578 18.8479381,13.3333333 C16.8705599,14.4245462 14.3328701,15.8066903 13.7242262,16.0784314 C11.5283506,17.0588235 9.17507404,18.2717678 7.68556709,18.4313725 C4.02577328,18.8235294 1.09793814,17.0588235 0.731958764,16.4705882 C0.365979393,15.8823529 0.548969072,15.0980392 0.548969072,15.0980392 Z" id="Rectangle-129" fill="#FFFEFE"></path>
                <path d="M8.7309137,6.95451359 C8.7309137,5.88038834 8.81498959,2.22215489 9.07021134,2.45511426 C9.68679792,3.0179175 11.1013342,1.36691246 11.7922892,0.452623073 C12.1603857,-0.0344517275 12.1075672,3.30570745 11.7922892,6.33091157 C11.515758,8.98432605 11.7966276,10.3077413 11.1415218,10.3077413 C9.73951832,10.3077413 8.33055805,12.1578512 8.33055805,12.1578512 C8.33055805,12.1578512 8.7309137,7.5060687 8.7309137,6.95451359 Z" id="Rectangle-130" stroke="#979797" stroke-width="0.25" fill="#ECEBEB" transform="translate(10.189747, 6.281428) rotate(51.000000) translate(-10.189747, -6.281428) "></path>
                <path d="M6.22164948,7.64705882 L9.33247423,8.23529412 L8.05154639,6.8627451 L11.1623711,7.05882353 L9.8814433,5.49019608 L12.2603093,6.07843137 L11.1623711,4.31372549 L13.3582474,4.90196078 L11.7113402,3.52941176" id="Line" stroke="#4B4B4B" stroke-width="0.5" stroke-linecap="square"></path>
            </g>
            <g id="Shoe-Copy-3" transform="translate(58.500000, 9.500000) scale(-1, 1) translate(-58.500000, -9.500000) translate(46.000000, 0.000000)">
                <path d="M1.64690718,10.7756656 C2.53877984,9.95652352 9.05895452,5.46954778 12.2128999,2.54901952 C13.5887231,1.27501819 12.9922675,0.98039215 13.3582468,0.588235287 C13.7242262,0.196078424 14.7150669,0.0444103639 15.7371128,0.196078411 C16.7302754,0.343460272 17.7210461,0.753289477 17.9329891,0.980392148 C18.8479376,1.96078423 17.7499994,2.74509803 18.8479376,3.13725488 C19.3136832,3.30360791 20.1288654,3.69298821 21.4097932,3.52941174 C22.6907211,3.36583528 23.780279,2.23245269 23.6056695,1.76470584 C23.23969,0.784313695 24.277946,2.56101455 24.1546392,5.87370509 C24.0543868,8.56703021 23.9747043,11.4085508 23.0567004,11.9607844 C21.0782036,13.1509673 20.6778345,13.5294119 19.3969066,13.5294119 C19.0363523,13.5294119 16.0293982,15.3901937 15.0051541,15.882353 C12.3906046,17.1386696 10.0156518,18.284964 8.41752589,18.6274511 C7.03724814,18.9232521 4.55771246,18.7803711 2.92783499,18.2352942 C1.31650856,17.6964214 0.54792173,16.7586737 0.365979381,16.4619401 C-2.20101715e-14,15.8650567 0.365979242,11.9521362 1.64690718,10.7756656 Z" id="Rectangle-128" stroke="#979797" stroke-width="0.5" fill="#212460"></path>
                <path d="M0.548969072,15.0980392 C0.548969072,15.0980392 4.45746395,17.8154799 7.68556709,17.0588235 C12.2650241,15.9854145 23.7886598,8.62745098 23.7886598,8.62745098 L23.2396901,11.372549 C23.2396901,11.372549 22.6440739,11.910816 20.6778344,12.9411765 C20.2919012,13.1434155 19.2914939,13.0885578 18.8479381,13.3333333 C16.8705599,14.4245462 14.3328701,15.8066903 13.7242262,16.0784314 C11.5283506,17.0588235 9.17507404,18.2717678 7.68556709,18.4313725 C4.02577328,18.8235294 1.09793814,17.0588235 0.731958764,16.4705882 C0.365979393,15.8823529 0.548969072,15.0980392 0.548969072,15.0980392 Z" id="Rectangle-129" fill="#FFFEFE"></path>
                <path d="M8.7309137,6.95451359 C8.7309137,5.88038834 8.81498959,2.22215489 9.07021134,2.45511426 C9.68679792,3.0179175 11.1013342,1.36691246 11.7922892,0.452623073 C12.1603857,-0.0344517275 12.1075672,3.30570745 11.7922892,6.33091157 C11.515758,8.98432605 11.7966276,10.3077413 11.1415218,10.3077413 C9.73951832,10.3077413 8.33055805,12.1578512 8.33055805,12.1578512 C8.33055805,12.1578512 8.7309137,7.5060687 8.7309137,6.95451359 Z" id="Rectangle-130" stroke="#979797" stroke-width="0.25" fill="#ECEBEB" transform="translate(10.189747, 6.281428) rotate(51.000000) translate(-10.189747, -6.281428) "></path>
                <path d="M6.22164948,7.64705882 L9.33247423,8.23529412 L8.05154639,6.8627451 L11.1623711,7.05882353 L9.8814433,5.49019608 L12.2603093,6.07843137 L11.1623711,4.31372549 L13.3582474,4.90196078 L11.7113402,3.52941176" id="Line" stroke="#4B4B4B" stroke-width="0.5" stroke-linecap="square"></path>
            </g>
        </g>
    </g>
</svg>