<?xml version="1.0" encoding="UTF-8" standalone="no"?>
<svg width="41px" height="11px" viewBox="0 0 41 11" version="1.1" xmlns="http://www.w3.org/2000/svg" xmlns:xlink="http://www.w3.org/1999/xlink">
    <!-- Generator: Sketch 3.6 (26304) - http://www.bohemiancoding.com/sketch -->
    <title>Blue Eyes</title>
    <desc>Created with Sketch.</desc>
    <defs></defs>
    <g id="Page-1" stroke="none" stroke-width="1" fill="none" fill-rule="evenodd">
        <g id="Build-a-Character---Body" transform="translate(-55.000000, -492.000000)">
            <g id="Blue-Eyes" transform="translate(55.000000, 492.000000)">
                <g id="Left-Eye-Copy" transform="translate(0.673968, 3.643049)">
                    <g id="Left-Eye">
                        <ellipse id="Oval-10" fill="#84A4DB" cx="3.3631388" cy="3.61202703" rx="3.3631388" ry="3.61202703"></ellipse>
                        <ellipse id="Oval-11" fill="#000000" cx="3.3631388" cy="3.61202703" rx="1.86841045" ry="2.00668168"></ellipse>
                        <ellipse id="Oval-12" fill="#FFFFFF" cx="2.80261567" cy="2.20734985" rx="0.560523134" ry="0.602004504"></ellipse>
                        <path id="Oval-13" fill="#FFFFFF" d="M4.69122515,5.25385749 C4.80557022,5.25385749 4.89826522,5.15584782 4.89826522,5.03494676 C4.89826522,4.91404571 4.80557022,4.81603603 4.69122515,4.81603603 C4.57688007,4.81603603 4.48418507,4.91404571 4.48418507,5.03494676 C4.48418507,5.15584782 4.57688007,5.25385749 4.69122515,5.25385749 Z"></path>
                    </g>
                </g>
                <g id="Right-Eye-Copy" transform="translate(34.073958, 3.643049)">
                    <g id="Right-Eye">
                        <ellipse id="Oval-10" fill="#84A4DB" cx="3.3631388" cy="3.61202703" rx="3.3631388" ry="3.61202703"></ellipse>
                        <ellipse id="Oval-11" fill="#000000" cx="3.3631388" cy="3.61202703" rx="1.86841045" ry="2.00668168"></ellipse>
                        <ellipse id="Oval-12" fill="#FFFFFF" cx="2.80261567" cy="2.20734985" rx="0.560523134" ry="0.602004504"></ellipse>
                        <ellipse id="Oval-13" fill="#FFFFFF" cx="4.69122515" cy="5.03494676" rx="0.207040076" ry="0.218910729"></ellipse>
                    </g>
                </g>
                <g id="Eyebrows-Copy" fill="#6C3D18">
                    <path d="M0.0967362351,2.82124897 C0.0967362351,2.82124897 0.932654887,1.61384879 2.42362795,1.06247281 C3.8152028,0.54785522 5.46423926,0.836295467 5.46423926,0.836295467 C5.46423926,0.836295467 3.82325027,-0.46742846 2.06830814,0.300976866 C0.313366017,1.06938219 0.0967362351,2.82124897 0.0967362351,2.82124897 L0.0967362351,2.82124897 Z" id="Path-1"></path>
                    <path d="M34.7801051,1.4972021 C34.7801051,1.4972021 36.0242423,0.805559117 37.5893724,1.0119547 C39.0501605,1.20459058 40.4145734,2.24022625 40.4145734,2.24022625 C40.4145734,2.24022625 39.4717968,0.295848502 37.5808291,0.16023761 C35.6898614,0.0246267176 34.7801051,1.4972021 34.7801051,1.4972021 L34.7801051,1.4972021 Z" id="Path-1-Copy"></path>
                </g>
            </g>
        </g>
    </g>
</svg>