<?xml version="1.0" encoding="UTF-8" standalone="no"?>
<svg width="97px" height="130px" viewBox="0 0 97 130" version="1.1" xmlns="http://www.w3.org/2000/svg" xmlns:xlink="http://www.w3.org/1999/xlink">
    <!-- Generator: Sketch 3.6.1 (26313) - http://www.bohemiancoding.com/sketch -->
    <title>Body Copy 2</title>
    <desc>Created with Sketch.</desc>
    <defs></defs>
    <g id="Page-1" stroke="none" stroke-width="1" fill="none" fill-rule="evenodd">
        <g id="Body-Copy-2" fill="#CFA163">
            <path d="M27.5356949,46.6434224 C27.5356949,35.5942756 21.605423,8.20193208 21.605423,8.20193208 C20.7141713,3.87904133 23.5725821,0.374645963 27.9942194,0.374645963 L65.9289038,0.374645963 C70.3485903,0.374645963 73.5605683,3.93733127 73.0216156,8.3307293 C73.0216156,8.3307293 73.2047148,8.31084819 72.0454468,14.6111926 C70.3279952,23.9451313 67.3304327,36.8697833 67.3304327,46.6434224 C67.3304327,54.4978343 74.308654,71.1827329 69.5936377,79.0502982 C67.1291421,83.1626022 57.8139437,77.1205357 47.5273643,77.1770684 C38.1338971,77.2286927 29.0790385,83.7890802 25.8382889,79.0502982 C19.0486657,69.1221802 27.5356949,59.8194655 27.5356949,46.6434224 Z" id="Torso"></path>
            <path d="M35.3511737,123.328156 C35.0000919,126.911974 31.8509184,129.279071 28.3138943,128.614577 L31.120679,129.141882 C27.5851788,128.477674 24.8347955,125.023103 24.9772181,121.433641 L26.5575093,81.6057193 C26.7000697,78.0127829 29.722129,75.3033741 33.3234151,75.5552005 L33.4777465,75.5659924 C37.0718927,75.8173196 39.700315,78.9324506 39.3498339,82.5101357 L35.3511737,123.328156 Z" id="Left-Leg"></path>
            <path d="M70.075043,119.235286 C70.1946607,122.842651 67.3706162,125.920082 63.7674638,126.108915 L66.228636,125.97993 C62.6254385,126.168766 59.4589935,123.418419 59.1548051,119.820558 L55.974267,82.2019862 C55.6706956,78.6114234 58.3505488,75.5473547 61.9393305,75.3592746 L62.0938268,75.3511778 C65.6918119,75.1626154 68.7050895,77.9209896 68.825142,81.5414669 L70.075043,119.235286 Z" id="Right-Leg"></path>
            <g id="Right-Hand-Copy" transform="translate(89.192673, 59.830054) rotate(-38.000000) translate(-89.192673, -59.830054) translate(81.692673, 50.830054)">
                <ellipse id="Left-Hand" transform="translate(8.298429, 6.743627) rotate(8.000000) translate(-8.298429, -6.743627) " cx="8.29842864" cy="6.74362733" rx="5.28081823" ry="5.99433541"></ellipse>
                <rect id="Thumb" transform="translate(11.899569, 10.950444) rotate(-4.000000) translate(-11.899569, -10.950444) " x="10.9565655" y="7.3913075" width="1.88600651" height="7.11827329" rx="8"></rect>
                <rect id="Rectangle-114" transform="translate(3.092267, 9.524439) rotate(43.000000) translate(-3.092267, -9.524439) " x="2.33786468" y="5.96530247" width="1.50880521" height="7.11827329" rx="8"></rect>
                <rect id="Rectangle-114-Copy" transform="translate(3.965965, 12.883715) rotate(31.000000) translate(-3.965965, -12.883715) " x="3.21156225" y="9.32457846" width="1.50880521" height="7.11827329" rx="8"></rect>
                <rect id="Rectangle-114-Copy-2" x="5.86435721" y="10.8358176" width="1.50880521" height="7.11827329" rx="8"></rect>
                <path d="M9.43887321,11.161657 C9.53351449,10.7517205 9.93650693,10.4947269 10.3453037,10.5891051 L10.3453037,10.5891051 C10.7512702,10.6828298 11.0031388,11.0933383 10.9090078,11.5010643 L9.65047115,16.9523856 C9.55582987,17.362322 9.15283743,17.6193157 8.74404064,17.5249375 L8.74404064,17.5249375 C8.33807417,17.4312127 8.08620557,17.0207042 8.18033652,16.6129783 L9.43887321,11.161657 Z" id="Rectangle-114-Copy-3" transform="translate(9.544672, 14.057021) rotate(-13.000000) translate(-9.544672, -14.057021) "></path>
            </g>
            <g id="Left-Hand-Copy" transform="translate(0.000000, 48.329329)">
                <ellipse id="Left-Hand" transform="translate(7.921227, 6.743627) rotate(8.000000) translate(-7.921227, -6.743627) " cx="7.92122734" cy="6.74362733" rx="5.28081823" ry="5.99433541"></ellipse>
                <rect id="Rectangle-114" transform="translate(3.272346, 11.858615) rotate(29.000000) translate(-3.272346, -11.858615) " x="2.51794355" y="8.29947809" width="1.50880521" height="7.11827329" rx="8"></rect>
                <rect id="Rectangle-114-Copy-4" transform="translate(2.807016, 7.984401) rotate(31.000000) translate(-2.807016, -7.984401) " x="1.86401259" y="4.4252645" width="1.88600651" height="7.11827329" rx="8"></rect>
                <rect id="Rectangle-114-Copy" transform="translate(4.881623, 13.978737) rotate(21.000000) translate(-4.881623, -13.978737) " x="4.1272204" y="10.4195999" width="1.50880521" height="7.11827329" rx="8"></rect>
                <rect id="Rectangle-114-Copy-2" transform="translate(7.522032, 13.978737) rotate(16.000000) translate(-7.522032, -13.978737) " x="6.76762951" y="10.4195999" width="1.50880521" height="7.11827329" rx="8"></rect>
                <rect id="Rectangle-114-Copy-3" transform="translate(10.539643, 12.105507) rotate(13.000000) translate(-10.539643, -12.105507) " x="9.78523993" y="8.54637009" width="1.50880521" height="7.11827329" rx="8"></rect>
            </g>
            <path d="M82.9421427,52.2682126 C83.7725469,54.947077 86.6592108,56.6077017 89.3947704,55.976148 L86.6788324,56.6031717 C89.4121161,55.9721434 90.9261471,53.2929637 90.0661756,50.6365406 L75.1475141,4.5532977 C74.2850084,1.8890466 73.2852955,1.98662299 72.9155984,4.76368633 L72.1740428,10.3340507 C71.8038955,13.1144962 72.1769004,17.5397956 73.0074118,20.2190058 L82.9421427,52.2682126 Z" id="Right-Arm"></path>
            <path d="M19.7972038,4.10305954 C20.5967625,1.4587425 22.2755719,1.29450692 23.5502718,3.74264779 L23.6894088,4.00986918 C24.9626124,6.4551363 25.3542216,10.5831741 24.5656658,13.224829 L13.8604125,49.0873315 C13.0711523,51.7313462 10.2569557,53.3727496 7.56118643,52.7503823 L10.1193168,53.3409732 C7.42961048,52.7200055 5.89603686,50.0772892 6.69690171,47.4286523 L19.7972038,4.10305954 Z" id="Left-Arm"></path>
        </g>
    </g>
</svg>