<?xml version="1.0" encoding="UTF-8" standalone="no"?>
<svg width="97px" height="129px" viewBox="0 0 97 129" version="1.1" xmlns="http://www.w3.org/2000/svg" xmlns:xlink="http://www.w3.org/1999/xlink">
    <!-- Generator: Sketch 3.6.1 (26313) - http://www.bohemiancoding.com/sketch -->
    <title>Body</title>
    <desc>Created with Sketch.</desc>
    <defs></defs>
    <g id="Page-1" stroke="none" stroke-width="1" fill="none" fill-rule="evenodd">
        <g id="Body" transform="translate(0.000000, -0.085787)" fill="#E9DAA8">
            <path d="M27.5356949,46.6434224 C27.5356949,35.5942756 21.605423,8.20193208 21.605423,8.20193208 C20.7141713,3.87904133 23.5725821,0.374645963 27.9942194,0.374645963 L65.9289038,0.374645963 C70.3485903,0.374645963 73.5605683,3.93733127 73.0216156,8.3307293 C73.0216156,8.3307293 73.2047148,8.31084819 72.0454468,14.6111926 C70.3279952,23.9451313 67.3304327,36.8697833 67.3304327,46.6434224 C67.3304327,54.4978343 74.308654,71.1827329 69.5936377,79.0502982 C67.1291421,83.1626022 57.8139437,77.1205357 47.5273643,77.1770684 C38.1338971,77.2286927 29.0790385,83.7890802 25.8382889,79.0502982 C19.0486657,69.1221802 27.5356949,59.8194655 27.5356949,46.6434224 Z" id="Torso"></path>
            <path d="M26.2671778,81.5904705 C26.36741,77.990893 29.3437919,75.4098866 32.9185528,75.8260318 L30.0818223,75.4958022 C33.655043,75.9117681 36.6397052,79.166067 36.7480178,82.7567209 L37.9498315,122.597859 C38.0582489,126.191988 35.23255,129.105605 31.6224699,129.105605 L31.4677616,129.105605 C27.8648389,129.105605 25.0255187,126.181411 25.1255794,122.587993 L26.2671778,81.5904705 Z" id="Left-Leg" transform="translate(31.537932, 102.300703) rotate(184.000000) translate(-31.537932, -102.300703) "></path>
            <path d="M57.6752646,81.8524098 C57.7446056,78.2437286 60.7258402,75.3183145 64.3339374,75.3183145 L61.8693876,75.3183145 C65.4775299,75.3183145 68.4956934,78.2306112 68.6111674,81.8394611 L69.8185428,119.572935 C69.9337826,123.174465 67.0972411,126.094081 63.5035343,126.094081 L63.348826,126.094081 C59.7459033,126.094081 56.8811174,123.181785 56.9507105,119.559986 L57.6752646,81.8524098 Z" id="Right-Leg" transform="translate(63.385701, 100.706198) rotate(177.000000) translate(-63.385701, -100.706198) "></path>
            <g id="Right-Hand-Copy" transform="translate(89.192673, 59.830054) rotate(-38.000000) translate(-89.192673, -59.830054) translate(81.692673, 50.830054)">
                <ellipse id="Left-Hand" transform="translate(8.298429, 6.743627) rotate(8.000000) translate(-8.298429, -6.743627) " cx="8.29842864" cy="6.74362733" rx="5.28081823" ry="5.99433541"></ellipse>
                <rect id="Thumb" transform="translate(11.899569, 10.950444) rotate(-4.000000) translate(-11.899569, -10.950444) " x="10.9565655" y="7.3913075" width="1.88600651" height="7.11827329" rx="8"></rect>
                <rect id="Rectangle-114" transform="translate(3.092267, 9.524439) rotate(43.000000) translate(-3.092267, -9.524439) " x="2.33786468" y="5.96530247" width="1.50880521" height="7.11827329" rx="8"></rect>
                <rect id="Rectangle-114-Copy" transform="translate(3.965965, 12.883715) rotate(31.000000) translate(-3.965965, -12.883715) " x="3.21156225" y="9.32457846" width="1.50880521" height="7.11827329" rx="8"></rect>
                <rect id="Rectangle-114-Copy-2" x="5.86435721" y="10.8358176" width="1.50880521" height="7.11827329" rx="8"></rect>
                <path d="M9.43887321,11.161657 C9.53351449,10.7517205 9.93650693,10.4947269 10.3453037,10.5891051 L10.3453037,10.5891051 C10.7512702,10.6828298 11.0031388,11.0933383 10.9090078,11.5010643 L9.65047115,16.9523856 C9.55582987,17.362322 9.15283743,17.6193157 8.74404064,17.5249375 L8.74404064,17.5249375 C8.33807417,17.4312127 8.08620557,17.0207042 8.18033652,16.6129783 L9.43887321,11.161657 Z" id="Rectangle-114-Copy-3" transform="translate(9.544672, 14.057021) rotate(-13.000000) translate(-9.544672, -14.057021) "></path>
            </g>
            <g id="Left-Hand-Copy" transform="translate(0.000000, 48.329329)">
                <ellipse id="Left-Hand" transform="translate(7.921227, 6.743627) rotate(8.000000) translate(-7.921227, -6.743627) " cx="7.92122734" cy="6.74362733" rx="5.28081823" ry="5.99433541"></ellipse>
                <rect id="Rectangle-114" transform="translate(3.272346, 11.858615) rotate(29.000000) translate(-3.272346, -11.858615) " x="2.51794355" y="8.29947809" width="1.50880521" height="7.11827329" rx="8"></rect>
                <rect id="Rectangle-114-Copy-4" transform="translate(2.807016, 7.984401) rotate(31.000000) translate(-2.807016, -7.984401) " x="1.86401259" y="4.4252645" width="1.88600651" height="7.11827329" rx="8"></rect>
                <rect id="Rectangle-114-Copy" transform="translate(4.881623, 13.978737) rotate(21.000000) translate(-4.881623, -13.978737) " x="4.1272204" y="10.4195999" width="1.50880521" height="7.11827329" rx="8"></rect>
                <rect id="Rectangle-114-Copy-2" transform="translate(7.522032, 13.978737) rotate(16.000000) translate(-7.522032, -13.978737) " x="6.76762951" y="10.4195999" width="1.50880521" height="7.11827329" rx="8"></rect>
                <rect id="Rectangle-114-Copy-3" transform="translate(10.539643, 12.105507) rotate(13.000000) translate(-10.539643, -12.105507) " x="9.78523993" y="8.54637009" width="1.50880521" height="7.11827329" rx="8"></rect>
            </g>
            <path d="M77.778241,6.94522912 C77.9847486,4.14822349 80.4238683,1.88080242 83.2313843,1.88080242 L80.444006,1.88080242 C83.2491863,1.88080242 85.327097,4.15073202 85.0867317,6.93252273 L80.9169086,55.1906237 C80.675835,57.9806118 79.6797947,58.1104228 78.6948697,55.4876991 L76.7192607,50.2269166 C75.7331362,47.6009987 75.1011051,43.2052116 75.3076395,40.4078449 L77.778241,6.94522912 Z" id="Right-Arm" transform="translate(80.187091, 29.626443) scale(1, -1) rotate(13.000000) translate(-80.187091, -29.626443) "></path>
            <path d="M14.3875057,3.90643831 C14.5717298,1.1500334 16.1705665,0.612357202 17.9633078,2.7110073 L18.1589905,2.9400808 C19.9496273,5.0362674 21.2598061,8.97041097 21.0857039,11.7217469 L18.7221334,49.0732538 C18.5478757,51.8270475 16.1750423,54.0594383 13.4083632,54.0594383 L16.0337828,54.0594383 C13.2733262,54.0594383 11.1845762,51.8294337 11.3691012,49.0685257 L14.3875057,3.90643831 Z" id="Left-Arm" transform="translate(16.229494, 27.744904) rotate(13.000000) translate(-16.229494, -27.744904) "></path>
        </g>
    </g>
</svg>
