<?xml version="1.0" encoding="UTF-8" standalone="no"?>
<svg width="69px" height="53px" viewBox="0 0 69 53" version="1.1" xmlns="http://www.w3.org/2000/svg" xmlns:xlink="http://www.w3.org/1999/xlink">
    <!-- Generator: Sketch 3.6 (26304) - http://www.bohemiancoding.com/sketch -->
    <title>BrownHair</title>
    <desc>Created with Sketch.</desc>
    <defs></defs>
    <g id="Page-1" stroke="none" stroke-width="1" fill="none" fill-rule="evenodd">
        <g id="Build-a-Character---Body" transform="translate(-40.000000, -828.000000)" fill="#6B4E13">
            <g id="Hair-Options" transform="translate(21.000000, 773.000000)">
                <path d="M34.7526917,68.742721 C26.1731692,74.0457236 20.5544859,83.1470325 20.5544859,94.5098773 C20.5544859,98.3587646 21.6892843,103.026842 24.0852103,107.537655 C20.8599617,102.289303 19,96.1118601 19,89.5 C19,70.4461761 34.4461761,55 53.5,55 C72.5538239,55 88,70.4461761 88,89.5 C88,93.7333793 87.2375154,97.7886707 85.8423876,101.536033 C86.2428468,99.3177097 86.4455141,96.9712322 86.4455141,94.5098773 C86.4455141,84.0579596 81.6915887,75.5195103 74.2522411,70.090542 C71.8195151,73.2040417 64.0564771,76.0917031 54.8558952,76.0917031 C44.3336813,76.0917031 35.6916705,72.3148514 34.7526917,68.742721 Z" id="BrownHair"></path>
            </g>
        </g>
    </g>
</svg>