<?xml version="1.0" encoding="UTF-8" standalone="no"?>
<svg width="41px" height="11px" viewBox="0 0 41 11" version="1.1" xmlns="http://www.w3.org/2000/svg" xmlns:xlink="http://www.w3.org/1999/xlink">
    <!-- Generator: Sketch 3.6 (26304) - http://www.bohemiancoding.com/sketch -->
    <title>Brown Eyes</title>
    <desc>Created with Sketch.</desc>
    <defs></defs>
    <g id="Page-1" stroke="none" stroke-width="1" fill="none" fill-rule="evenodd">
        <g id="Build-a-Character---Body" transform="translate(-172.000000, -492.000000)">
            <g id="Brown-Eyes" transform="translate(172.000000, 492.000000)">
                <g id="Left-Eye-Copy" transform="translate(0.795360, 3.865613)">
                    <g id="Left-Eye">
                        <ellipse id="Oval-10" fill="#57341C" cx="3.62355954" cy="3.39544513" rx="3.62355954" ry="3.39544513"></ellipse>
                        <ellipse id="Oval-11" fill="#000000" cx="3.62355954" cy="3.39544513" rx="2.01308863" ry="1.88635841"></ellipse>
                        <ellipse id="Oval-12" fill="#FFFFFF" cx="3.01963295" cy="2.07499425" rx="0.60392659" ry="0.565907522"></ellipse>
                        <ellipse id="Oval-13" fill="#FFFFFF" cx="5.03272158" cy="4.73161567" rx="0.201308863" ry="0.204355494"></ellipse>
                    </g>
                </g>
                <g id="Right-Eye-Copy" transform="translate(33.499586, 3.865613)">
                    <g id="Right-Eye">
                        <ellipse id="Oval-10" fill="#57341C" cx="3.62355954" cy="3.39544513" rx="3.62355954" ry="3.39544513"></ellipse>
                        <ellipse id="Oval-11" fill="#000000" cx="3.62355954" cy="3.39544513" rx="2.01308863" ry="1.88635841"></ellipse>
                        <ellipse id="Oval-12" fill="#FFFFFF" cx="3.01963295" cy="2.07499425" rx="0.60392659" ry="0.565907522"></ellipse>
                        <ellipse id="Oval-13" fill="#FFFFFF" cx="5.03272158" cy="4.73161567" rx="0.201308863" ry="0.204355494"></ellipse>
                    </g>
                </g>
                <g id="Eyebrows-Copy" fill="#000000">
                    <path d="M0.173431045,3.09308897 C0.173431045,3.09308897 1.07407808,1.9580861 2.6805029,1.43977134 C4.17983274,0.956010903 5.95656042,1.22715589 5.95656042,1.22715589 C5.95656042,1.22715589 4.18850335,0.00160496807 2.29766933,0.7239357 C0.406835302,1.44626643 0.173431045,3.09308897 0.173431045,3.09308897 L0.173431045,3.09308897 Z" id="Path-1"></path>
                    <path d="M34.2604125,1.84843369 C34.2604125,1.84843369 35.600888,1.19826254 37.2872121,1.39228237 C38.8611147,1.57336755 40.3311793,2.54690514 40.3311793,2.54690514 C40.3311793,2.54690514 39.3153998,0.71911484 37.2780073,0.591635355 C35.2406147,0.46415587 34.2604125,1.84843369 34.2604125,1.84843369 L34.2604125,1.84843369 Z" id="Path-1-Copy"></path>
                </g>
            </g>
        </g>
    </g>
</svg>