<?xml version="1.0" encoding="UTF-8" standalone="no"?>
<svg width="39px" height="12px" viewBox="0 0 39 12" version="1.1" xmlns="http://www.w3.org/2000/svg" xmlns:xlink="http://www.w3.org/1999/xlink">
    <!-- Generator: Sketch 3.6 (26304) - http://www.bohemiancoding.com/sketch -->
    <title>Brown Eyes</title>
    <desc>Created with Sketch.</desc>
    <defs></defs>
    <g id="Page-1" stroke="none" stroke-width="1" fill="none" fill-rule="evenodd">
        <g id="Build-a-Character---Body" transform="translate(-54.000000, -495.000000)">
            <g id="Eyes-Option" transform="translate(21.000000, 417.000000)">
                <g id="Brown-Eyes" transform="translate(32.000000, 77.000000)">
                    <g id="Left-Eye-Copy" transform="translate(1.971831, 5.369565)">
                        <g id="Left-Eye">
                            <ellipse id="Oval-10" fill="#57341C" cx="3.62355954" cy="3.6783989" rx="3.62355954" ry="3.6783989"></ellipse>
                            <ellipse id="Oval-11" fill="#000000" cx="3.62355954" cy="3.6783989" rx="2.01308863" ry="2.04355494"></ellipse>
                            <ellipse id="Oval-12" fill="#FFFFFF" cx="3.01963295" cy="2.24791044" rx="0.60392659" ry="0.613066483"></ellipse>
                            <ellipse id="Oval-13" fill="#FFFFFF" cx="5.03272158" cy="5.10888736" rx="0.201308863" ry="0.204355494"></ellipse>
                        </g>
                    </g>
                    <g id="Right-Eye-Copy" transform="translate(32.676056, 5.369565)">
                        <g id="Right-Eye">
                            <ellipse id="Oval-10" fill="#57341C" cx="3.62355954" cy="3.6783989" rx="3.62355954" ry="3.6783989"></ellipse>
                            <ellipse id="Oval-11" fill="#000000" cx="3.62355954" cy="3.6783989" rx="2.01308863" ry="2.04355494"></ellipse>
                            <ellipse id="Oval-12" fill="#FFFFFF" cx="3.01963295" cy="2.24791044" rx="0.60392659" ry="0.613066483"></ellipse>
                            <ellipse id="Oval-13" fill="#FFFFFF" cx="5.03272158" cy="5.10888736" rx="0.201308863" ry="0.204355494"></ellipse>
                        </g>
                    </g>
                    <g id="Eyebrows-Copy" fill="#000000">
                        <path d="M1.34990163,4.53266457 C1.34990163,4.53266457 2.25054867,3.30307812 3.85697349,2.74157047 C5.35630333,2.21749666 7.13303101,2.51123707 7.13303101,2.51123707 C7.13303101,2.51123707 5.36497394,1.1835569 3.47413991,1.96608186 C1.58330589,2.74860682 1.34990163,4.53266457 1.34990163,4.53266457 L1.34990163,4.53266457 Z" id="Path-1"></path>
                        <path d="M33.4368831,3.18428802 C33.4368831,3.18428802 34.7773586,2.47993593 36.4636827,2.69012408 C38.0375852,2.88629969 39.5076499,3.94096542 39.5076499,3.94096542 C39.5076499,3.94096542 38.4918704,1.96085926 36.4544779,1.82275648 C34.4170853,1.68465371 33.4368831,3.18428802 33.4368831,3.18428802 L33.4368831,3.18428802 Z" id="Path-1-Copy"></path>
                    </g>
                </g>
            </g>
        </g>
    </g>
</svg>