<?xml version="1.0" encoding="UTF-8" standalone="no"?>
<svg width="89px" height="72px" viewBox="0 0 89 72" version="1.1" xmlns="http://www.w3.org/2000/svg" xmlns:xlink="http://www.w3.org/1999/xlink">
    <!-- Generator: Sketch 3.6 (26304) - http://www.bohemiancoding.com/sketch -->
    <title>Color Option 3</title>
    <desc>Created with Sketch.</desc>
    <defs></defs>
    <g id="Page-1" stroke="none" stroke-width="1" fill="none" fill-rule="evenodd">
        <g id="Build-a-Character---Body" transform="translate(-268.000000, -286.000000)">
            <g id="Color-Option-Section" transform="translate(22.000000, 239.000000)">
                <g id="Color-Options" transform="translate(10.000000, 47.000000)">
                    <g id="Color-Option-3" transform="translate(236.127193, 0.000000)">
                        <rect id="Rectangle-19" fill="#CFA163" x="39.2368421" y="57" width="9.96491228" height="15" rx="5"></rect>
                        <path d="M45.0650419,63.5263158 C66.3939453,63.5263158 78.1127392,51.1414755 78.1127392,32.1141047 C78.1127392,13.0867339 62.8684188,0.195245057 44.0635965,0.195245057 C25.2587742,0.195245057 10.0144537,13.0867339 10.0144537,32.1141047 C10.0144537,44.0248533 20.5296302,63.5263158 45.0650419,63.5263158 Z" id="Oval-1" fill="#D0A163"></path>
                        <g id="Ears" transform="translate(0.000000, 29.074213)">
                            <g id="Left-Ear">
                                <ellipse id="Oval-4" fill="#CFA163" cx="7.51084031" cy="7.59972849" rx="7.51084031" ry="7.59972849"></ellipse>
                                <path d="M2.04077212,8.70744894 C2.35019272,11.0110031 4.49722484,12.1595656 4.49722484,12.1595656 C4.49722484,12.1595656 4.47673578,12.1337912 4.44154441,12.0845644 C4.08609382,11.5873489 2.23071129,8.69750992 4.83839883,5.80767096 C5.84133534,4.69621686 6.90033038,4.41759937 7.77249533,4.28873963 C9.392516,4.04938648 10.5257664,4.77203596 10.5701218,4.77203596 C10.6383567,4.77203596 6.74897311,1.01669895 3.26899848,4.56490897 C2.14830081,5.70758129 1.89379195,7.61322057 2.04077212,8.70744894 L2.04077212,8.70744894 Z" id="Path-3-Copy" fill="#B8905A"></path>
                            </g>
                            <g id="Right-Ear" transform="translate(73.105512, 0.000000)">
                                <ellipse id="Oval-4" fill="#CFA163" cx="7.51084031" cy="7.59972849" rx="7.51084031" ry="7.59972849"></ellipse>
                                <path d="M7.41752139,3.07822108 C5.14091012,3.39130356 4.0057815,5.56374506 4.0057815,5.56374506 C4.0057815,5.56374506 4.03125439,5.54301352 4.07990542,5.50740567 C4.57130542,5.14774845 7.42734416,3.27040811 10.2833829,5.90895672 C11.3818372,6.92376264 11.6571959,7.99529052 11.7845484,8.87777723 C12.0211021,10.5169703 11.3069049,11.6636324 11.3069049,11.7085127 C11.3069049,11.7775551 15.0183186,7.84214198 11.5116093,4.32098307 C10.3823019,3.18702234 8.49895141,2.92950145 7.41752139,3.07822108 Z" id="Path-3" fill="#B8905A"></path>
                            </g>
                        </g>
                        <g id="Blush" opacity="0.559468284" transform="translate(22.030353, 36.167293)" fill="#B8905A">
                            <path d="M5.38110308,1.00576028 C2.63069433,0.614640921 0.245047555,1.4207098 0.0526118619,2.80616551 C-0.139823831,4.19162123 1.93382304,5.63181989 4.68423178,6.02293925 C7.43464053,6.41405861 10.2520008,5.82369688 10.4654553,4.28691441 C10.6789099,2.75013193 8.13151182,1.39687965 5.38110308,1.00576028 L5.38110308,1.00576028 Z" id="Oval-8-Copy"></path>
                            <path d="M38.9508538,6.50399649 C41.7177234,6.25906195 43.8630209,4.9306477 43.74251,3.53690021 C43.6219991,2.14315271 41.2813148,1.2118558 38.5144452,1.45679034 C35.7475756,1.70172487 33.1336733,2.91822426 33.267347,4.46420418 C33.4010208,6.0101841 36.1839842,6.74893102 38.9508538,6.50399649 L38.9508538,6.50399649 Z" id="Oval-8-Copy-2"></path>
                        </g>
                    </g>
                </g>
            </g>
        </g>
    </g>
</svg>