<?xml version="1.0" encoding="UTF-8" standalone="no"?>
<svg width="70px" height="57px" viewBox="0 0 70 57" version="1.1" xmlns="http://www.w3.org/2000/svg" xmlns:xlink="http://www.w3.org/1999/xlink">
    <!-- Generator: Sketch 3.6 (26304) - http://www.bohemiancoding.com/sketch -->
    <title>Afro</title>
    <desc>Created with Sketch.</desc>
    <defs></defs>
    <g id="Page-1" stroke="none" stroke-width="1" fill="none" fill-rule="evenodd">
        <g id="Build-a-Character---Body" transform="translate(-282.000000, -826.000000)" fill="#424242">
            <g id="Hair-Options" transform="translate(21.000000, 773.000000)">
                <g id="Afro" transform="translate(261.000000, 53.000000)">
                    <path d="M66.8821985,50.5593389 C68.2781572,46.6490477 69.0410959,42.4174392 69.0410959,38 C69.0410959,18.117749 53.5857201,2 34.5205479,2 C15.4553758,2 0,18.117749 0,38 C0,44.8993316 1.86106912,51.3453583 5.08823528,56.8218948 C2.69088606,52.1149657 1.55541175,47.2439283 1.55541175,43.2276981 C1.55541175,24.0165954 15.8349521,13.9999999 34.0410941,13.9999999 C52.2472361,13.9999999 67.4856841,24.0165954 67.4856841,43.2276981 C67.4856841,45.7960684 67.2828961,48.2445666 66.8821985,50.5593389 Z" id="Oval-110-Copy-2"></path>
                    <ellipse id="Oval-118" cx="14.3835616" cy="9" rx="1.91780822" ry="2"></ellipse>
                    <ellipse id="Oval-118-Copy-8" cx="12.4657534" cy="11" rx="1.91780822" ry="2"></ellipse>
                    <ellipse id="Oval-118-Copy-10" cx="9.5890411" cy="15" rx="1.91780822" ry="2"></ellipse>
                    <ellipse id="Oval-118-Copy-11" cx="7.67123288" cy="18" rx="1.91780822" ry="2"></ellipse>
                    <ellipse id="Oval-118-Copy-12" cx="5.75342466" cy="20" rx="1.91780822" ry="2"></ellipse>
                    <ellipse id="Oval-118-Copy-13" cx="4.79452055" cy="23" rx="1.91780822" ry="2"></ellipse>
                    <ellipse id="Oval-118-Copy-14" cx="3.83561644" cy="26" rx="1.91780822" ry="2"></ellipse>
                    <ellipse id="Oval-118-Copy-9" cx="11.5068493" cy="13" rx="1.91780822" ry="2"></ellipse>
                    <ellipse id="Oval-118-Copy" cx="17.260274" cy="8" rx="1.91780822" ry="2"></ellipse>
                    <ellipse id="Oval-118-Copy-2" cx="19.1780822" cy="6" rx="1.91780822" ry="2"></ellipse>
                    <ellipse id="Oval-118-Copy-16" cx="25.890411" cy="4" rx="1.91780822" ry="2"></ellipse>
                    <ellipse id="Oval-118-Copy-17" cx="28.7671233" cy="4" rx="1.91780822" ry="2"></ellipse>
                    <ellipse id="Oval-118-Copy-18" cx="31.6438356" cy="3" rx="1.91780822" ry="2"></ellipse>
                    <ellipse id="Oval-118-Copy-19" cx="33.5616438" cy="3" rx="1.91780822" ry="2"></ellipse>
                    <ellipse id="Oval-118-Copy-20" cx="36.4383562" cy="2" rx="1.91780822" ry="2"></ellipse>
                    <ellipse id="Oval-118-Copy-21" cx="42.1917808" cy="4" rx="1.91780822" ry="2"></ellipse>
                    <ellipse id="Oval-118-Copy-22" cx="25.890411" cy="14" rx="1.91780822" ry="2"></ellipse>
                    <ellipse id="Oval-118-Copy-23" cx="23.0136986" cy="14" rx="1.91780822" ry="2"></ellipse>
                    <ellipse id="Oval-118-Copy-24" cx="20.1369863" cy="16" rx="1.91780822" ry="2"></ellipse>
                    <ellipse id="Oval-118-Copy-36" cx="46.9863014" cy="15" rx="1.91780822" ry="2"></ellipse>
                    <ellipse id="Oval-118-Copy-39" cx="50.8219178" cy="16" rx="1.91780822" ry="2"></ellipse>
                    <ellipse id="Oval-118-Copy-40" cx="50.8219178" cy="7" rx="1.91780822" ry="2"></ellipse>
                    <ellipse id="Oval-118-Copy-41" cx="52.739726" cy="8" rx="1.91780822" ry="2"></ellipse>
                    <ellipse id="Oval-118-Copy-42" cx="52.739726" cy="17" rx="1.91780822" ry="2"></ellipse>
                    <ellipse id="Oval-118-Copy-43" cx="54.6575342" cy="10" rx="1.91780822" ry="2"></ellipse>
                    <ellipse id="Oval-118-Copy-44" cx="54.6575342" cy="19" rx="1.91780822" ry="2"></ellipse>
                    <ellipse id="Oval-118-Copy-45" cx="57.5342466" cy="20" rx="1.91780822" ry="2"></ellipse>
                    <ellipse id="Oval-118-Copy-46" cx="59.4520548" cy="21" rx="1.91780822" ry="2"></ellipse>
                    <ellipse id="Oval-118-Copy-47" cx="56.5753425" cy="11" rx="1.91780822" ry="2"></ellipse>
                    <ellipse id="Oval-118-Copy-48" cx="58.4931507" cy="13" rx="1.91780822" ry="2"></ellipse>
                    <ellipse id="Oval-118-Copy-49" cx="59.4520548" cy="15" rx="1.91780822" ry="2"></ellipse>
                    <ellipse id="Oval-118-Copy-50" cx="61.369863" cy="17" rx="1.91780822" ry="2"></ellipse>
                    <ellipse id="Oval-118-Copy-51" cx="60.4109589" cy="23" rx="1.91780822" ry="2"></ellipse>
                    <ellipse id="Oval-118-Copy-52" cx="63.2876712" cy="25" rx="1.91780822" ry="2"></ellipse>
                    <ellipse id="Oval-118-Copy-53" cx="64.2465753" cy="19" rx="1.91780822" ry="2"></ellipse>
                    <ellipse id="Oval-118-Copy-54" cx="64.2465753" cy="22" rx="1.91780822" ry="2"></ellipse>
                    <ellipse id="Oval-118-Copy-55" cx="65.2054795" cy="28" rx="1.91780822" ry="2"></ellipse>
                    <ellipse id="Oval-118-Copy-56" cx="66.1643836" cy="25" rx="1.91780822" ry="2"></ellipse>
                    <ellipse id="Oval-118-Copy-57" cx="66.1643836" cy="28" rx="1.91780822" ry="2"></ellipse>
                    <ellipse id="Oval-118-Copy-58" cx="66.1643836" cy="31" rx="1.91780822" ry="2"></ellipse>
                    <ellipse id="Oval-118-Copy-59" cx="67.1232877" cy="33" rx="1.91780822" ry="2"></ellipse>
                    <ellipse id="Oval-118-Copy-60" cx="68.5616438" cy="35.5" rx="1.43835616" ry="1.5"></ellipse>
                    <ellipse id="Oval-118-Copy-61" cx="67.6027397" cy="36.5" rx="1.43835616" ry="1.5"></ellipse>
                    <ellipse id="Oval-118-Copy-62" cx="68.5616438" cy="38.5" rx="1.43835616" ry="1.5"></ellipse>
                    <ellipse id="Oval-118-Copy-63" cx="68.0821918" cy="40" rx="0.95890411" ry="1"></ellipse>
                    <ellipse id="Oval-118-Copy-37" cx="46.9863014" cy="5" rx="1.91780822" ry="2"></ellipse>
                    <ellipse id="Oval-118-Copy-38" cx="48.9041096" cy="7" rx="1.91780822" ry="2"></ellipse>
                    <ellipse id="Oval-118-Copy-25" cx="17.260274" cy="16" rx="1.91780822" ry="2"></ellipse>
                    <ellipse id="Oval-118-Copy-26" cx="14.3835616" cy="18" rx="1.91780822" ry="2"></ellipse>
                    <ellipse id="Oval-118-Copy-27" cx="28.7671233" cy="13" rx="1.91780822" ry="2"></ellipse>
                    <ellipse id="Oval-118-Copy-28" cx="39.3150685" cy="3" rx="1.91780822" ry="2"></ellipse>
                    <ellipse id="Oval-118-Copy-29" cx="31.6438356" cy="13" rx="1.91780822" ry="2"></ellipse>
                    <ellipse id="Oval-118-Copy-31" cx="44.109589" cy="5" rx="1.91780822" ry="2"></ellipse>
                    <ellipse id="Oval-118-Copy-32" cx="36.4383562" cy="14" rx="1.91780822" ry="2"></ellipse>
                    <ellipse id="Oval-118-Copy-33" cx="39.3150685" cy="13" rx="1.91780822" ry="2"></ellipse>
                    <ellipse id="Oval-118-Copy-34" cx="42.1917808" cy="13" rx="1.91780822" ry="2"></ellipse>
                    <ellipse id="Oval-118-Copy-35" cx="45.0684932" cy="14" rx="1.91780822" ry="2"></ellipse>
                    <ellipse id="Oval-118-Copy-30" cx="34.0410959" cy="13.5" rx="1.43835616" ry="1.5"></ellipse>
                    <ellipse id="Oval-118-Copy-15" cx="22.0547945" cy="6" rx="1.91780822" ry="2"></ellipse>
                    <ellipse id="Oval-118-Copy-3" cx="10.5479452" cy="20" rx="1.91780822" ry="2"></ellipse>
                    <ellipse id="Oval-118-Copy-4" cx="8.63013699" cy="23" rx="1.91780822" ry="2"></ellipse>
                    <ellipse id="Oval-118-Copy-5" cx="5.75342466" cy="25" rx="1.91780822" ry="2"></ellipse>
                    <ellipse id="Oval-118-Copy-6" cx="3.83561644" cy="29" rx="1.91780822" ry="2"></ellipse>
                    <ellipse id="Oval-118-Copy-7" cx="1.91780822" cy="33" rx="1.91780822" ry="2"></ellipse>
                </g>
            </g>
        </g>
    </g>
</svg>