<?xml version="1.0" encoding="UTF-8" standalone="no"?>
<svg width="56px" height="38px" viewBox="0 0 56 38" version="1.1" xmlns="http://www.w3.org/2000/svg" xmlns:xlink="http://www.w3.org/1999/xlink">
    <!-- Generator: Sketch 3.6.1 (26313) - http://www.bohemiancoding.com/sketch -->
    <title>Sports Copy</title>
    <desc>Created with Sketch.</desc>
    <defs></defs>
    <g id="Page-1" stroke="none" stroke-width="1" fill="none" fill-rule="evenodd">
        <g id="Sports-Copy" transform="translate(1.000000, 1.000000)">
            <path d="M2.68946462,0.0914801407 C3.05592008,-0.641429406 10.1620247,3.26474925 28.4621718,3.44650701 C46.7623189,3.62826476 53.1673704,0.0914801407 53.1673704,0.0914801407 L53.7773753,23.5766689 C53.7773753,23.5766689 53.9408154,33.1879601 53.5715075,33.3404597 C53.2021996,33.4929592 49.6500723,36.0000006 40.4999985,36 C31.3499247,35.9999994 27.8423968,33.7124816 27.8423968,33.7124816 L27.6451249,19.9467309 L25.5475969,32.6449723 C25.5475969,32.6449723 27.682614,35.9999998 13.5,36 C-0.682614002,36.0000002 0.232393353,32.644973 0.232393353,32.644973 C0.232393353,32.644973 1.92695707,1.6164924 2.68946462,0.0914801407 Z" id="Path-199-Copy-3" stroke="#747474" fill="#B3B8BC"></path>
            <path d="M1,26.5 C1,26.5 8.12479817,28.1499839 12.5,28.5 C16.4581315,28.8166505 26,28.121011 26,28.121011 L25.5,31 C25.5,31 16.3564002,32.04455 12,31.5 C8.35640024,31.04455 1,29 1,29 L1,26.5 Z" id="Rectangle-112" fill="#1C2E5C"></path>
            <path d="M28.6693511,25.8255058 C28.6693511,25.8255058 36.5174217,28.4299129 40.8926235,28.779929 C44.850755,29.0965795 53.6368404,28.1970948 53.6368404,28.1970948 L53.1158958,31.1679176 C53.1158958,31.1679176 44.6412557,32.4798891 40.2848555,31.9353391 C36.6412557,31.4798891 28.1484066,28.779929 28.1484066,28.779929 L28.6693511,25.8255058 Z" id="Rectangle-112-Copy" fill="#1C2E5C" transform="translate(40.892624, 28.946593) rotate(-10.000000) translate(-40.892624, -28.946593) "></path>
        </g>
    </g>
</svg>