<?xml version="1.0" encoding="UTF-8" standalone="no"?>
<svg width="41px" height="11px" viewBox="0 0 41 11" version="1.1" xmlns="http://www.w3.org/2000/svg" xmlns:xlink="http://www.w3.org/1999/xlink">
    <!-- Generator: Sketch 3.6 (26304) - http://www.bohemiancoding.com/sketch -->
    <title>Green Eyes</title>
    <desc>Created with Sketch.</desc>
    <defs></defs>
    <g id="Page-1" stroke="none" stroke-width="1" fill="none" fill-rule="evenodd">
        <g id="Build-a-Character---Body" transform="translate(-416.000000, -492.000000)">
            <g id="Green-Eyes" transform="translate(416.000000, 492.000000)">
                <g id="Left-Eye-Copy" transform="translate(0.692184, 3.643049)">
                    <g id="Left-Eye">
                        <ellipse id="Oval-10" fill="#6EA776" cx="3.45403445" cy="3.61202703" rx="3.45403445" ry="3.61202703"></ellipse>
                        <ellipse id="Oval-11" fill="#000000" cx="3.45403445" cy="3.61202703" rx="1.91890803" ry="2.00668168"></ellipse>
                        <ellipse id="Oval-12" fill="#FFFFFF" cx="2.87836204" cy="2.20734985" rx="0.575672408" ry="0.602004504"></ellipse>
                        <ellipse id="Oval-13" fill="#FFFFFF" cx="4.81241934" cy="5.03494676" rx="0.207040076" ry="0.218910729"></ellipse>
                    </g>
                </g>
                <g id="Right-Eye-Copy" transform="translate(33.959938, 3.643049)">
                    <g id="Right-Eye">
                        <ellipse id="Oval-10" fill="#6EA876" cx="3.45403445" cy="3.61202703" rx="3.45403445" ry="3.61202703"></ellipse>
                        <ellipse id="Oval-11" fill="#000000" cx="3.45403445" cy="3.61202703" rx="1.91890803" ry="2.00668168"></ellipse>
                        <ellipse id="Oval-12" fill="#FFFFFF" cx="2.87836204" cy="2.20734985" rx="0.575672408" ry="0.602004504"></ellipse>
                        <ellipse id="Oval-13" fill="#FFFFFF" cx="4.81241934" cy="5.03494676" rx="0.207040076" ry="0.218910729"></ellipse>
                    </g>
                </g>
                <g id="Eyebrows-Copy" fill="#875937">
                    <path d="M0.0993507279,2.82124897 C0.0993507279,2.82124897 0.957861775,1.61384879 2.4891314,1.06247281 C3.91831639,0.54785522 5.61192141,0.836295467 5.61192141,0.836295467 C5.61192141,0.836295467 3.92658136,-0.46742846 2.12420836,0.300976866 C0.321835369,1.06938219 0.0993507279,2.82124897 0.0993507279,2.82124897 L0.0993507279,2.82124897 Z" id="Path-1"></path>
                    <path d="M34.6851706,1.4972021 C34.6851706,1.4972021 35.9629331,0.805559117 37.570364,1.0119547 C39.0706329,1.20459058 40.4719218,2.24022625 40.4719218,2.24022625 C40.4719218,2.24022625 39.5036647,0.295848502 37.5615898,0.16023761 C35.6195149,0.0246267176 34.6851706,1.4972021 34.6851706,1.4972021 L34.6851706,1.4972021 Z" id="Path-1-Copy"></path>
                </g>
            </g>
        </g>
    </g>
</svg>