<?xml version="1.0" encoding="UTF-8" standalone="no"?>
<svg width="38px" height="11px" viewBox="0 0 38 11" version="1.1" xmlns="http://www.w3.org/2000/svg" xmlns:xlink="http://www.w3.org/1999/xlink">
    <!-- Generator: Sketch 3.6 (26304) - http://www.bohemiancoding.com/sketch -->
    <title>Laughing</title>
    <desc>Created with Sketch.</desc>
    <defs></defs>
    <g id="Page-1" stroke="none" stroke-width="1" fill="none" fill-rule="evenodd">
        <g id="Build-a-Character---Body" transform="translate(-296.000000, -495.000000)" fill="#373737">
            <g id="Eyes-Option" transform="translate(21.000000, 417.000000)">
                <g id="Laughing" transform="translate(275.000000, 78.000000)">
                    <g id="Eyebrows-Copy">
                        <path d="M3.1372568,1.94956085 C4.39533472,1.05205572 6.11348051,0.875880464 6.11348051,0.875880464 C6.11348051,0.875880464 4.14644798,0.0468283086 2.59007813,1.29665313 C1.03370829,2.54647796 1.26089419,4.33768588 1.26089419,4.33768588 C1.26089419,4.33768588 1.78931616,2.91117347 3.1372568,1.94956085 L3.1372568,1.94956085 Z" id="Path-1"></path>
                        <path d="M34.5241733,1.78913337 C35.9327784,2.38791368 37.0319158,3.79252619 37.0319158,3.79252619 C37.0319158,3.79252619 36.5833778,1.60808869 34.7311752,0.945351238 C32.8789726,0.282613786 31.5987249,1.48294493 31.5987249,1.48294493 C31.5987249,1.48294493 33.0149536,1.14758303 34.5241733,1.78913337 L34.5241733,1.78913337 Z" id="Path-1-Copy"></path>
                    </g>
                    <g id="Eyebrows-Copy-2" transform="translate(0.000000, 7.500000)">
                        <path d="M6.41895624,2.37679263 C6.41895624,2.37679263 5.1117326,0.630002622 3.16647623,0.898360284 C1.22121987,1.16671795 0.56179377,2.83677372 0.56179377,2.83677372 C0.56179377,2.83677372 1.86338543,2.12777251 3.49037501,1.99999997 C5.00889861,1.88074559 6.41895624,2.37679263 6.41895624,2.37679263 Z" id="Path-1"></path>
                        <path d="M34.4685423,1.97299831 C36.1683817,2.19496332 37.3953478,3.04114048 37.3953478,3.04114048 C37.3953478,3.04114048 36.42161,1.05257233 34.4685422,0.913879374 C32.5154744,0.775186416 31.5758414,2.28122942 31.5758414,2.28122942 C31.5758414,2.28122942 32.7687028,1.7510333 34.4685423,1.97299831 Z" id="Path-1-Copy"></path>
                    </g>
                </g>
            </g>
        </g>
    </g>
</svg>