<?xml version="1.0" encoding="UTF-8" standalone="no"?>
<svg width="40px" height="11px" viewBox="0 0 40 11" version="1.1" xmlns="http://www.w3.org/2000/svg" xmlns:xlink="http://www.w3.org/1999/xlink">
    <!-- Generator: Sketch 3.6 (26304) - http://www.bohemiancoding.com/sketch -->
    <title>Laughing</title>
    <desc>Created with Sketch.</desc>
    <defs></defs>
    <g id="Page-1" stroke="none" stroke-width="1" fill="none" fill-rule="evenodd">
        <g id="Build-a-Character---Body" transform="translate(-292.000000, -492.000000)" fill="#373737">
            <g id="Laughing" transform="translate(292.000000, 492.000000)">
                <g id="Eyebrows-Copy" transform="translate(1.000000, 0.000000)">
                    <path d="M2.1372568,1.94956085 C3.39533472,1.05205572 5.11348051,0.875880464 5.11348051,0.875880464 C5.11348051,0.875880464 3.14644798,0.0468283086 1.59007813,1.29665313 C0.0337082878,2.54647796 0.26089419,4.33768588 0.26089419,4.33768588 C0.26089419,4.33768588 0.789316162,2.91117347 2.1372568,1.94956085 L2.1372568,1.94956085 Z" id="Path-1"></path>
                    <path d="M35.5241733,1.78913337 C36.9327784,2.38791368 38.0319158,3.79252619 38.0319158,3.79252619 C38.0319158,3.79252619 37.5833778,1.60808869 35.7311752,0.945351238 C33.8789726,0.282613786 32.5987249,1.48294493 32.5987249,1.48294493 C32.5987249,1.48294493 34.0149536,1.14758303 35.5241733,1.78913337 L35.5241733,1.78913337 Z" id="Path-1-Copy"></path>
                </g>
                <g id="Eyebrows-Copy-2" transform="translate(0.000000, 7.500000)">
                    <path d="M6.41895624,2.37679263 C6.41895624,2.37679263 5.1117326,0.630002622 3.16647623,0.898360284 C1.22121987,1.16671795 0.56179377,2.83677372 0.56179377,2.83677372 C0.56179377,2.83677372 1.86338543,2.12777251 3.49037501,1.99999997 C5.00889861,1.88074559 6.41895624,2.37679263 6.41895624,2.37679263 Z" id="Path-1"></path>
                    <path d="M36.4685423,1.97299831 C38.1683817,2.19496332 39.3953478,3.04114048 39.3953478,3.04114048 C39.3953478,3.04114048 38.42161,1.05257233 36.4685422,0.913879374 C34.5154744,0.775186416 33.5758414,2.28122942 33.5758414,2.28122942 C33.5758414,2.28122942 34.7687028,1.7510333 36.4685423,1.97299831 Z" id="Path-1-Copy"></path>
                </g>
            </g>
        </g>
    </g>
</svg>