<?xml version="1.0" encoding="UTF-8" standalone="no"?>
<svg width="68px" height="52px" viewBox="0 0 68 52" version="1.1" xmlns="http://www.w3.org/2000/svg" xmlns:xlink="http://www.w3.org/1999/xlink">
    <!-- Generator: Sketch 3.6 (26304) - http://www.bohemiancoding.com/sketch -->
    <title>RedHair</title>
    <desc>Created with Sketch.</desc>
    <defs></defs>
    <g id="Page-1" stroke="none" stroke-width="1" fill="none" fill-rule="evenodd">
        <g id="Build-a-Character---Body" transform="translate(-403.000000, -826.000000)" fill="#FF5F28">
            <g id="Hair-Options" transform="translate(21.000000, 773.000000)">
                <path d="M397.524392,66.5435512 C389.06921,71.7696986 383.531957,80.7391045 383.531957,91.9372704 C383.531957,95.7303767 384.650309,100.330801 387.011512,104.77624 C383.833006,99.6039507 382,93.516036 382,87 C382,68.2223185 397.222319,53 416,53 C434.777681,53 450,68.2223185 450,87 C450,91.172026 449.248566,95.1685451 447.873657,98.8615979 C448.268313,96.6754241 448.468043,94.3629534 448.468043,91.9372704 C448.468043,81.6368298 443.783015,73.2221261 436.451484,67.8718385 C434.054015,70.940215 426.403485,73.7860262 417.336245,73.7860262 C406.966527,73.7860262 398.449762,70.0639115 397.524392,66.5435512 Z" id="RedHair"></path>
            </g>
        </g>
    </g>
</svg>