<?xml version="1.0" encoding="UTF-8" standalone="no"?>
<svg width="71px" height="19px" viewBox="0 0 71 19" version="1.1" xmlns="http://www.w3.org/2000/svg" xmlns:xlink="http://www.w3.org/1999/xlink">
    <!-- Generator: Sketch 3.6.1 (26313) - http://www.bohemiancoding.com/sketch -->
    <title>Shoesred</title>
    <desc>Created with Sketch.</desc>
    <defs></defs>
    <g id="Page-1" stroke="none" stroke-width="1" fill="none" fill-rule="evenodd">
        <g id="Shoesred">
            <g id="Shoe-Copy-2" transform="translate(0.000000, 1.120448)">
                <path d="M1.64690718,10.2625386 C2.53877984,9.48240336 9.05895452,5.20909313 12.2128999,2.42763764 C13.5887231,1.21430304 12.9922675,0.93370681 13.3582468,0.560224083 C13.7242262,0.186741356 14.7150669,0.0422955846 15.7371128,0.186741344 C16.7302754,0.327105021 17.7210461,0.71741855 17.9329891,0.933706808 C18.8479376,1.86741355 17.7499994,2.61437907 18.8479376,2.98786179 C19.3136832,3.14629325 20.1288654,3.51713162 21.4097932,3.36134452 C22.6907211,3.20555741 23.780279,2.12614542 23.6056695,1.68067223 C23.23969,0.746965423 24.277946,2.43906148 24.1546392,5.59400484 C24.0543868,8.15907639 23.9747043,10.8652865 23.0567004,11.3912232 C21.0782036,12.5247307 20.6778345,12.8851542 19.3969066,12.8851542 C19.0363523,12.8851542 16.0293982,14.6573273 15.0051541,15.1260505 C12.3906046,16.3225425 10.0156518,17.4142514 8.41752589,17.7404296 C7.03724814,18.0221449 4.55771246,17.8860677 2.92783499,17.3669469 C1.31650856,16.8537346 0.54792173,15.9606416 0.365979381,15.6780382 C-2.20101715e-14,15.1095778 0.365979242,11.3829868 1.64690718,10.2625386 Z" id="Rectangle-128" stroke="#979797" stroke-width="0.5" fill="#B11717"></path>
                <path d="M0.548969072,14.379085 C0.548969072,14.379085 4.45746395,16.9671237 7.68556709,16.2464986 C12.2650241,15.2242043 23.7886598,8.21661998 23.7886598,8.21661998 L23.2396901,10.8309991 C23.2396901,10.8309991 22.6440739,11.3436343 20.6778344,12.32493 C20.2919012,12.5175386 19.2914939,12.4652932 18.8479381,12.6984127 C16.8705599,13.7376631 14.3328701,15.0539907 13.7242262,15.3127918 C11.5283506,16.2464986 9.17507404,17.4016836 7.68556709,17.5536881 C4.02577328,17.9271709 1.09793814,16.2464986 0.731958764,15.6862745 C0.365979393,15.1260504 0.548969072,14.379085 0.548969072,14.379085 Z" id="Rectangle-129" fill="#FFFEFE"></path>
                <path d="M8.7309137,6.62334628 C8.7309137,5.60036985 8.81498959,2.11633799 9.07021134,2.33820406 C9.68679792,2.87420714 11.1013342,1.30182139 11.7922892,0.431069593 C12.1603857,-0.032811169 12.1075672,3.14829281 11.7922892,6.02943959 C11.515758,8.556501 11.7966276,9.81689649 11.1415218,9.81689649 C9.73951832,9.81689649 8.33055805,11.5789059 8.33055805,11.5789059 C8.33055805,11.5789059 8.7309137,7.14863686 8.7309137,6.62334628 Z" id="Rectangle-130" stroke="#979797" stroke-width="0.25" fill="#ECEBEB" transform="translate(10.189747, 5.982313) rotate(51.000000) translate(-10.189747, -5.982313) "></path>
                <path d="M6.22164948,7.28291317 L9.33247423,7.84313725 L8.05154639,6.53594771 L11.1623711,6.72268908 L9.8814433,5.22875817 L12.2603093,5.78898226 L11.1623711,4.10830999 L13.3582474,4.66853408 L11.7113402,3.36134454" id="Line" stroke="#4B4B4B" stroke-width="0.5" stroke-linecap="square"></path>
            </g>
            <g id="Shoe-Copy-3" transform="translate(58.500000, 9.047619) scale(-1, 1) translate(-58.500000, -9.047619) translate(46.000000, 0.000000)">
                <path d="M1.64690718,10.2625386 C2.53877984,9.48240336 9.05895452,5.20909313 12.2128999,2.42763764 C13.5887231,1.21430304 12.9922675,0.93370681 13.3582468,0.560224083 C13.7242262,0.186741356 14.7150669,0.0422955846 15.7371128,0.186741344 C16.7302754,0.327105021 17.7210461,0.71741855 17.9329891,0.933706808 C18.8479376,1.86741355 17.7499994,2.61437907 18.8479376,2.98786179 C19.3136832,3.14629325 20.1288654,3.51713162 21.4097932,3.36134452 C22.6907211,3.20555741 23.780279,2.12614542 23.6056695,1.68067223 C23.23969,0.746965423 24.277946,2.43906148 24.1546392,5.59400484 C24.0543868,8.15907639 23.9747043,10.8652865 23.0567004,11.3912232 C21.0782036,12.5247307 20.6778345,12.8851542 19.3969066,12.8851542 C19.0363523,12.8851542 16.0293982,14.6573273 15.0051541,15.1260505 C12.3906046,16.3225425 10.0156518,17.4142514 8.41752589,17.7404296 C7.03724814,18.0221449 4.55771246,17.8860677 2.92783499,17.3669469 C1.31650856,16.8537346 0.54792173,15.9606416 0.365979381,15.6780382 C-2.20101715e-14,15.1095778 0.365979242,11.3829868 1.64690718,10.2625386 Z" id="Rectangle-128" stroke="#979797" stroke-width="0.5" fill="#B11818"></path>
                <path d="M0.548969072,14.379085 C0.548969072,14.379085 4.45746395,16.9671237 7.68556709,16.2464986 C12.2650241,15.2242043 23.7886598,8.21661998 23.7886598,8.21661998 L23.2396901,10.8309991 C23.2396901,10.8309991 22.6440739,11.3436343 20.6778344,12.32493 C20.2919012,12.5175386 19.2914939,12.4652932 18.8479381,12.6984127 C16.8705599,13.7376631 14.3328701,15.0539907 13.7242262,15.3127918 C11.5283506,16.2464986 9.17507404,17.4016836 7.68556709,17.5536881 C4.02577328,17.9271709 1.09793814,16.2464986 0.731958764,15.6862745 C0.365979393,15.1260504 0.548969072,14.379085 0.548969072,14.379085 Z" id="Rectangle-129" fill="#FFFEFE"></path>
                <path d="M8.7309137,6.62334628 C8.7309137,5.60036985 8.81498959,2.11633799 9.07021134,2.33820406 C9.68679792,2.87420714 11.1013342,1.30182139 11.7922892,0.431069593 C12.1603857,-0.032811169 12.1075672,3.14829281 11.7922892,6.02943959 C11.515758,8.556501 11.7966276,9.81689649 11.1415218,9.81689649 C9.73951832,9.81689649 8.33055805,11.5789059 8.33055805,11.5789059 C8.33055805,11.5789059 8.7309137,7.14863686 8.7309137,6.62334628 Z" id="Rectangle-130" stroke="#979797" stroke-width="0.25" fill="#ECEBEB" transform="translate(10.189747, 5.982313) rotate(51.000000) translate(-10.189747, -5.982313) "></path>
                <path d="M6.22164948,7.28291317 L9.33247423,7.84313725 L8.05154639,6.53594771 L11.1623711,6.72268908 L9.8814433,5.22875817 L12.2603093,5.78898226 L11.1623711,4.10830999 L13.3582474,4.66853408 L11.7113402,3.36134454" id="Line" stroke="#4B4B4B" stroke-width="0.5" stroke-linecap="square"></path>
            </g>
        </g>
    </g>
</svg>