<?xml version="1.0" encoding="UTF-8" standalone="no"?>
<svg width="76px" height="69px" viewBox="0 0 76 69" version="1.1" xmlns="http://www.w3.org/2000/svg" xmlns:xlink="http://www.w3.org/1999/xlink">
    <!-- Generator: Sketch 3.6.1 (26313) - http://www.bohemiancoding.com/sketch -->
    <title>Julio Copy</title>
    <desc>Created with Sketch.</desc>
    <defs></defs>
    <g id="Page-1" stroke="none" stroke-width="1" fill="none" fill-rule="evenodd">
        <g id="Julio-Copy">
            <path d="M2.90890737,14.7865928 C5.12980724,6.62018309 13.7973992,0 22.2649001,0 L53.1512131,0 C61.6203328,0 70.542293,6.54187422 72.9559341,14.6689132 C72.9559341,14.6689132 75.9035738,22.8763214 75.9035738,27.674505 C75.9035738,32.4726885 -1.19779973e-07,30.7725478 -4.45596114e-15,27.674505 C1.19779965e-07,24.5764622 2.90890737,14.7865928 2.90890737,14.7865928 Z" id="Rectangle-25-Copy" stroke="#2F4273" fill="#1C2E5C"></path>
            <path d="M13.2162017,32.0070667 C14.4474056,15.8830681 15.9258509,-2.19802206e-07 25.0867129,6.70826272e-10 C42.7010195,4.24591593e-07 35.6000316,-1.94876689e-08 51.9013477,6.70826272e-10 C60.1771781,1.09048654e-08 62.4002891,16.1627496 63.6214262,32.0070667 C64.8056238,47.3720914 65.1103684,62.3937503 65.1103684,64.8595206 C65.1103685,69.8679778 10.8571431,70.8696693 10.8571429,64.8595206 C10.8571427,61.9751347 12.0800735,46.8859427 13.2162017,32.0070667 Z" id="Rectangle-26" stroke="#2F4273" fill="#1C2E5C"></path>
            <text id="3" stroke="#79C143" stroke-width="1.5" font-family="AtomicAge-Regular, Atomic Age" font-size="28" font-weight="normal" letter-spacing="3.5583334" fill="#B3B8BC">
                <tspan x="30" y="38">3</tspan>
            </text>
        </g>
    </g>
</svg>